inDegrees=no
num_controls=7
num_derivatives=13
num_iterations=34
num_multipliers=7
num_parameters=0
num_slacks=7
num_states=26
objective=0.426641
objective_accelerations=0.058467
objective_balance=0.001148
objective_effort=0.015588
objective_height=0.345401
objective_ligament=0.006036
solver_duration=521.537500
status=Solve_Succeeded
success=true
DataType=double
version=3
OpenSimVersion=4.5
endheader
time	/jointset/ground_pelvis/pelvis_tilt/value	/jointset/ground_pelvis/pelvis_tx/value	/jointset/ground_pelvis/pelvis_ty/value	/jointset/hip_l/hip_flexion_l/value	/jointset/hip_l/hip_adduction_l/value	/jointset/hip_l/hip_rotation_l/value	/jointset/back/lumbar_extension/value	/jointset/patellofemoral_l/patellar_flexion_l/value	/jointset/knee_l/knee_flexion_l/value	/jointset/knee_l/knee_adduction_l/value	/jointset/knee_l/knee_rotation_l/value	/jointset/ankle_l/ankle_angle_l/value	/jointset/subtalar_l/subtalar_angle_l/value	/jointset/ground_pelvis/pelvis_tilt/speed	/jointset/ground_pelvis/pelvis_tx/speed	/jointset/ground_pelvis/pelvis_ty/speed	/jointset/hip_l/hip_flexion_l/speed	/jointset/hip_l/hip_adduction_l/speed	/jointset/hip_l/hip_rotation_l/speed	/jointset/back/lumbar_extension/speed	/jointset/patellofemoral_l/patellar_flexion_l/speed	/jointset/knee_l/knee_flexion_l/speed	/jointset/knee_l/knee_adduction_l/speed	/jointset/knee_l/knee_rotation_l/speed	/jointset/ankle_l/ankle_angle_l/speed	/jointset/subtalar_l/subtalar_angle_l/speed	/forceset/tau_hip_flexion_l	/forceset/tau_hip_adduction_l	/forceset/tau_hip_rotation_l	/forceset/tau_knee_flexion_l	/forceset/tau_ankle_angle_l	/forceset/tau_subtalar_angle_l	/forceset/tau_lumbar_extension	lambda_cid13_p0	lambda_cid13_p1	lambda_cid13_p2	lambda_cid13_p3	lambda_cid13_p4	lambda_cid13_p5	lambda_cid14_p0	/jointset/ground_pelvis/pelvis_tilt/accel	/jointset/ground_pelvis/pelvis_tx/accel	/jointset/ground_pelvis/pelvis_ty/accel	/jointset/hip_l/hip_flexion_l/accel	/jointset/hip_l/hip_adduction_l/accel	/jointset/hip_l/hip_rotation_l/accel	/jointset/back/lumbar_extension/accel	/jointset/patellofemoral_l/patellar_flexion_l/accel	/jointset/knee_l/knee_flexion_l/accel	/jointset/knee_l/knee_adduction_l/accel	/jointset/knee_l/knee_rotation_l/accel	/jointset/ankle_l/ankle_angle_l/accel	/jointset/subtalar_l/subtalar_angle_l/accel	gamma_cid13_p0	gamma_cid13_p1	gamma_cid13_p2	gamma_cid13_p3	gamma_cid13_p4	gamma_cid13_p5	gamma_cid14_p0
0.5	-0.2152751947901438	0.03400596629427863	0.7696376372374303	0.9939605412361324	-0.3645854523657805	0.003204003208593765	-0.4015287224174698	0.9726296952555971	0.9726296952555556	-0.03545181792804235	-0.1743256591039838	0.3232788996589394	0.165966187267386	-0.7404148119006572	-0.1693394404879891	-0.5328512189311784	2.397529698685585	0.03696094171277238	0.5491878705629994	-0.3098076474379143	2.023671091605227	2.023671091605225	0.3020604180548415	-0.004550518889025739	0.5339966559609901	0.2773251052571511	-0.1061381434241125	0.08235513889687424	-0.001667477222248759	-0.1974234286444067	0.006393461992930791	-0.01984065955823194	0.1182879794167124	-25.63181348159645	18.14935024538669	-8.936667546181608	2.076381602913714	-441.0444157885044	-22.02706680116844	-4.473228185220072	0.3741908636022547	0.370821126961201	-0.4412532023546801	-1.293137738722724	0.17195844757993	-0.7063091186273536	1.502146820772717	-1.762635485298736	-1.762635485298731	-0.1703291840839075	0.1350652384203675	-0.9980649780951802	0.1408995261463488	-4.885727132530224e-07	-2.126630055156492e-07	6.851123090220251e-06	3.79986945508704e-07	-1.360000070883288e-06	-1.133977058972274e-06	-8.615472452426848e-07
0.51	-0.222658421477916	0.03233143767852737	0.7642884137217612	1.017866065227049	-0.3642100973460707	0.008666688298409332	-0.4045525312014794	0.9927746816840989	0.9927746816840879	-0.03245009861721034	-0.174364691854289	0.3285673451265131	0.1687416168918277	-0.7361137147555159	-0.1655425858194041	-0.5368687440419079	2.38323727193557	0.03809682026417673	0.5432898435613214	-0.2949233508057702	2.00505190307632	2.005051903076319	0.2982633422738824	-0.003301360717993586	0.5236237062302975	0.2776987814540152	-0.1109354048077685	0.08351801285541244	-0.002232606520318812	-0.1998931092903596	0.004901363839244452	-0.01929090853882693	0.1219743246314869	-26.32482617316419	18.22498853034514	-9.16924196813501	2.225025072857594	-444.4802636510074	-21.96436239499478	-3.87072427442448	0.4755636024824082	0.3877514386900175	-0.3635564854477453	-1.548024150678957	0.08137768558297503	-0.5412536949795171	1.486184868170073	-1.952533814977315	-1.95253381497737	-0.4873735181225278	0.1143353084875063	-1.067233170695135	-0.02450732253794759	-4.653345517846318e-07	1.48750995467631e-07	6.78156887713223e-06	4.204711675361187e-07	-1.293094099051757e-06	-7.219417324001756e-07	-8.351061996031698e-07
0.52	-0.2299951383017319	0.03069560436983793	0.7589027040909819	1.041618519148956	-0.3638239885155094	0.01406845227739532	-0.40742657426242	1.012725281571661	1.012725281571663	-0.02948694541288434	-0.1743923341824304	0.3337499964567509	0.1715187614804395	-0.7311128391098828	-0.1616003790756241	-0.5401484419532057	2.36691568488402	0.03911170388206742	0.5370036483979923	-0.2798545028242208	1.984793783415789	1.984793783415787	0.2943471967721076	-0.002272434465249783	0.5128378284940514	0.2776680980911052	-0.1157326661914514	0.08468088681394582	-0.00279773581903343	-0.2023627899363124	0.003409265685569892	-0.01874115751941022	0.1256606698462385	-27.01307001535743	18.28996121988393	-9.388883272177347	2.332637445830687	-447.8372773191601	-22.01929301548515	-3.318099498314813	0.5141465637005743	0.3998915420002007	-0.2936877624683445	-1.698969799029912	0.1477594608771747	-0.78394275095757	1.539057090653786	-2.090421711623654	-2.090421711623662	-0.1941431282469961	0.09101885476269557	-1.080650579205904	0.06002761419154852	-4.381350225219682e-07	5.802453321371822e-07	6.701020263000212e-06	4.691506190985954e-07	-1.225154911440577e-06	-2.636968057459128e-07	-8.012308703499417e-07
0.53	-0.2372787333160116	0.029099863573124	0.7534879189691616	1.065198126487807	-0.3634279944330949	0.01940621372794723	-0.4101490933347757	1.032465295404744	1.032465295404753	-0.02656364021973626	-0.1744100907742947	0.3388228740526564	0.1742939922422481	-0.7255097332336398	-0.1575283778005036	-0.542677779358796	2.348682404759514	0.04007535196343712	0.5304912583875638	-0.2646466564398723	1.9629316333791	1.962931633379098	0.2902921477535068	-0.001318683331723631	0.5016714743424401	0.2773142561470919	-0.1201904369134872	0.08545843151244846	-0.003207812553061492	-0.2055545632764376	0.002618733340514906	-0.01833911226299509	0.1290723945942506	-27.50428876710179	18.4198318838082	-9.65913547761574	2.348388455632478	-451.3750678605111	-22.09049931810176	-2.814084488756546	0.5978381165679565	0.4138637341679473	-0.2131741657390216	-1.934059540716174	0.06783953774517226	-0.5942107157512526	1.51204669339211	-2.275557435415183	-2.27555743541534	-0.5143264222146684	0.09288574349199524	-1.144536648677362	-0.093581965243469	-4.10283827485279e-07	9.062932080767859e-07	6.559563553788611e-06	5.003370665735712e-07	-1.150294126709891e-06	1.36570431826203e-07	-7.690030152392506e-07
0.54	-0.2445034081681304	0.0275454446519407	0.7480517169860587	1.088585690541099	-0.363022929458667	0.02467698656045499	-0.412719454287074	1.051978398580321	1.051978398580325	-0.0236815136435414	-0.1744192433546253	0.343782106343939	0.1770635862113077	-0.7193288066781239	-0.1533360039694995	-0.5444318142097173	2.328507027772789	0.04092588228393858	0.5236059247905106	-0.2494228788128412	1.939411651913464	1.939411651913461	0.2861114733929902	-0.0005516321644226539	0.4901087675692837	0.2765407395412504	-0.1246482076355599	0.08623597621092711	-0.003617889287570035	-0.2087463366165687	0.001828200995464188	-0.01793706700660415	0.1324841193422321	-27.9922359367412	18.54035639189774	-9.917872604599557	2.324317630374364	-454.8565551309276	-22.2734405524163	-2.357268433225123	0.629710699555064	0.4239660531769346	-0.1386272515345203	-2.087389171473575	0.1251359087035233	-0.8585314682825262	1.542243339190331	-2.421987997413162	-2.421987997413162	-0.2192681966301137	0.05367886151767563	-1.159921103514874	-0.02390731817409306	-3.817116405283914e-07	1.115676914698149e-06	6.350719164914492e-06	5.121695520793969e-07	-1.067775404740603e-06	4.726921410521131e-07	-7.385978974777494e-07
